<?xml version="1.0" encoding="UTF-8"?>
<svg width="200" height="44" version="1.1" viewBox="0 0 52.917 11.642" xmlns="http://www.w3.org/2000/svg" xmlns:cc="http://creativecommons.org/ns#" xmlns:dc="http://purl.org/dc/elements/1.1/" xmlns:rdf="http://www.w3.org/1999/02/22-rdf-syntax-ns#">
 <metadata>
  <rdf:RDF>
   <cc:Work rdf:about="">
    <dc:format>image/svg+xml</dc:format>
    <dc:type rdf:resource="http://purl.org/dc/dcmitype/StillImage"/>
   </cc:Work>
  </rdf:RDF>
 </metadata>
 <g fill="#007ce3">
  <g stroke-width=".10761" aria-label="SysGuides">
   <path d="m13.908 9.6685q-0.68183 0-1.1984-0.23761-0.51654-0.24794-0.8058-0.69216-0.27893-0.45456-0.27893-1.0434v-0.2686q0-0.051654 0.03099-0.082646 0.04132-0.041323 0.09298-0.041323h0.92977q0.05165 0 0.08265 0.041323 0.04132 0.030992 0.04132 0.082646v0.20662q0 0.44422 0.30992 0.72316t0.83679 0.27893q0.48555 0 0.74382-0.24794t0.25827-0.65084q0-0.27893-0.14463-0.47522-0.14463-0.20662-0.41323-0.37191-0.25827-0.17562-0.8058-0.46489-0.63018-0.33059-1.0124-0.58886t-0.65084-0.66117q-0.25827-0.4029-0.25827-0.98143 0-0.88845 0.58886-1.405 0.59919-0.51654 1.5703-0.51654 0.6715 0 1.188 0.25827 0.51654 0.24794 0.79547 0.71283 0.27893 0.46489 0.27893 1.0641v0.21695q0 0.051654-0.04132 0.092977-0.03099 0.030992-0.08265 0.030992h-0.92977q-0.05165 0-0.09298-0.030992-0.03099-0.041323-0.03099-0.092977v-0.19629q0-0.44422-0.29959-0.73349-0.29959-0.28926-0.8058-0.28926-0.44422 0-0.70249 0.23761-0.25827 0.22728-0.25827 0.64051 0 0.27893 0.1343 0.47522 0.1343 0.19629 0.4029 0.37191 0.27893 0.17562 0.8368 0.45456 0.74382 0.42356 1.0951 0.66117t0.58886 0.61985q0.24794 0.37191 0.24794 0.91944 0 0.90911-0.60952 1.4463-0.60952 0.5372-1.6323 0.5372z"/>
   <path d="m16.986 11.642q-0.03099 0-0.05165-0.04132-0.02066-0.03099-0.02066-0.08265v-0.74382q0-0.12397 0.11364-0.12397 0.38224-0.01033 0.59919-0.09298 0.21695-0.07232 0.35125-0.29959 0.1343-0.21695 0.21695-0.64051 0.01033-0.020662 0-0.061985l-1.498-5.1137-0.01033-0.041323q0-0.10331 0.11364-0.10331h1.0227q0.10331 0 0.1343 0.10331l0.82646 3.5331q0.01033 0.041323 0.03099 0.041323t0.03099-0.041323l0.82646-3.5228q0.03099-0.11364 0.1343-0.11364l1.0021 0.010331q0.06198 0 0.08265 0.041323 0.03099 0.030992 0.02066 0.092977l-1.6013 5.434q-0.22728 0.73349-0.46489 1.0951-0.22728 0.36158-0.64051 0.51654-0.4029 0.15496-1.157 0.15496z"/>
   <path d="m23.216 9.6478q-0.89878 0-1.436-0.4029-0.5372-0.4029-0.5372-1.0537v-0.082646q0-0.051654 0.03099-0.082646 0.04132-0.041323 0.09298-0.041323h0.89878q0.05165 0 0.08265 0.041323 0.04132 0.030992 0.04132 0.082646v0.030992q0 0.24794 0.23761 0.43389 0.23761 0.17562 0.58886 0.17562 0.34092 0 0.54753-0.16529 0.21695-0.16529 0.21695-0.41323t-0.21695-0.38224q-0.20662-0.1343-0.65084-0.28926l-0.2686-0.092977q-0.70249-0.22728-1.1261-0.56819-0.42356-0.35125-0.42356-1.0331 0-0.72316 0.51654-1.1364 0.51654-0.42356 1.3637-0.42356 0.87812 0 1.3947 0.43389 0.52687 0.42356 0.52687 1.1364v0.010331q0 0.051654-0.04132 0.092977-0.03099 0.030992-0.08265 0.030992h-0.86779q-0.05165 0-0.09298-0.030992-0.03099-0.041323-0.03099-0.092977v-0.041323q0-0.25827-0.21695-0.42356-0.21695-0.17562-0.56819-0.17562-0.34092 0-0.54753 0.16529-0.20662 0.15496-0.20662 0.4029 0 0.19629 0.14463 0.33059 0.14463 0.12397 0.32026 0.19629 0.18595 0.072316 0.64051 0.22728 0.48555 0.16529 0.81613 0.34092 0.34092 0.17562 0.57852 0.48555 0.23761 0.30992 0.23761 0.78514 0 0.71283-0.5372 1.1261-0.52687 0.4029-1.4256 0.4029z"/>
   <path d="m28.247 9.6685q-0.6715 0-1.188-0.2686-0.50621-0.2686-0.79547-0.75415-0.27893-0.49588-0.27893-1.1364v-3.0786q0-0.64051 0.27893-1.1261 0.28926-0.49588 0.79547-0.76448 0.51654-0.2686 1.188-0.2686t1.188 0.2686q0.51654 0.25827 0.79547 0.73349 0.28926 0.47522 0.28926 1.0847v0.23761q0 0.051654-0.04132 0.092977-0.03099 0.030992-0.08265 0.030992h-0.95043q-0.05165 0-0.09298-0.030992-0.03099-0.041323-0.03099-0.092977v-0.23761q0-0.46489-0.29959-0.75415-0.28926-0.29959-0.77481-0.29959-0.47522 0-0.77481 0.30992-0.28926 0.29959-0.28926 0.79547v3.1199q0 0.49588 0.29959 0.8058 0.30992 0.29959 0.79547 0.29959 0.47522 0 0.75415-0.2686 0.28926-0.27893 0.28926-0.75415v-0.81613q0-0.051654-0.05165-0.051654h-0.9401q-0.05165 0-0.09298-0.030992-0.03099-0.041323-0.03099-0.092977v-0.75415q0-0.051654 0.03099-0.082646 0.04132-0.041323 0.09298-0.041323h2.0662q0.05165 0 0.08265 0.041323 0.04132 0.030992 0.04132 0.082646v1.6116q0 1.0227-0.61985 1.6116-0.61985 0.57852-1.6529 0.57852z"/>
   <path d="m34.332 4.4308q0-0.051654 0.03099-0.082646 0.04132-0.041323 0.09298-0.041323h0.95043q0.05165 0 0.08265 0.041323 0.04132 0.030992 0.04132 0.082646v5.0311q0 0.051654-0.04132 0.092977-0.03099 0.030992-0.08265 0.030992h-0.95043q-0.05165 0-0.09298-0.030992-0.03099-0.041323-0.03099-0.092977v-0.27893q0-0.030992-0.02066-0.030992-0.02066-0.010331-0.04132 0.020662-0.35125 0.48555-1.1054 0.48555-0.70249 0-1.1674-0.41323-0.46489-0.42356-0.46489-1.2294v-3.5848q0-0.051654 0.03099-0.082646 0.04132-0.041323 0.09298-0.041323h0.95043q0.05165 0 0.08265 0.041323 0.04132 0.030992 0.04132 0.082646v3.2852q0 0.43389 0.19629 0.68183 0.20662 0.23761 0.58886 0.23761 0.38224 0 0.59919-0.24794 0.21695-0.25827 0.21695-0.69216z"/>
   <path d="m37.286 3.5836q-0.32026 0-0.52687-0.20662-0.19628-0.20662-0.19628-0.52687t0.19628-0.52687q0.20662-0.20662 0.52687-0.20662 0.33058 0 0.52687 0.20662 0.20662 0.19629 0.20662 0.52687 0 0.32025-0.20662 0.52687t-0.52687 0.20662zm-0.47522 6.0022q-0.05165 0-0.09298-0.030992-0.03099-0.041323-0.03099-0.092977v-5.0414q0-0.051654 0.03099-0.082646 0.04132-0.041323 0.09298-0.041323h0.95043q0.05165 0 0.08265 0.041323 0.04132 0.030992 0.04132 0.082646v5.0414q0 0.051654-0.04132 0.092977-0.03099 0.030992-0.08265 0.030992z"/>
   <path d="m41.883 2.4782q0-0.051654 0.03099-0.082646 0.04132-0.041323 0.09298-0.041323h0.95043q0.05165 0 0.08265 0.041323 0.04132 0.030992 0.04132 0.082646v6.9836q0 0.051654-0.04132 0.092977-0.03099 0.030992-0.08265 0.030992h-0.95043q-0.05165 0-0.09298-0.030992-0.03099-0.041323-0.03099-0.092977v-0.2686q0-0.030992-0.02066-0.041323t-0.04132 0.020662q-0.39257 0.49588-1.1261 0.49588-1.2604 0-1.6116-1.5703-0.11364-0.47522-0.11364-1.1674 0-0.68183 0.09298-1.1364 0.32026-1.5703 1.6633-1.5703 0.74382 0 1.0951 0.47522 0.02066 0.030992 0.04132 0.020662 0.02066-0.010331 0.02066-0.041323zm-0.11364 5.5063q0.10331-0.36158 0.10331-1.0434 0-0.70249-0.11364-1.0641-0.16529-0.61985-0.7025-0.61985-0.54753 0-0.75415 0.60952-0.1343 0.39257-0.1343 1.0744 0 0.63018 0.11364 1.0331 0.18596 0.66117 0.76448 0.66117 0.54753 0 0.72316-0.65084z"/>
   <path d="m48.227 6.063q0.03099 0.34092 0.03099 0.78514l-0.01033 0.44422q0 0.12397-0.12397 0.12397h-2.7687q-0.05165 0-0.05165 0.051654 0.02066 0.28926 0.04132 0.42356 0.05165 0.34092 0.28926 0.54753 0.23761 0.20662 0.59919 0.20662 0.30992-0.010331 0.51654-0.15496 0.21695-0.14463 0.33059-0.4029 0.05165-0.11364 0.15496-0.082646l0.84713 0.17562q0.12397 0.041323 0.08265 0.15496-0.20662 0.64051-0.71282 0.99176-0.49588 0.34092-1.219 0.34092-0.85746 0-1.374-0.41323t-0.6715-1.1467q-0.05165-0.27893-0.07232-0.58886-0.01033-0.30992-0.01033-0.82646 0-0.5372 0.05165-0.81613 0.10331-0.75415 0.64051-1.1984 0.5372-0.45456 1.3637-0.45456 0.89878 0 1.4463 0.50621 0.55786 0.50621 0.61985 1.3327zm-2.0558-0.8058q-0.34092 0-0.56819 0.20662-0.21695 0.19629-0.2686 0.5372-0.03099 0.22728-0.03099 0.51654 0 0.051654 0.05165 0.051654h1.6426q0.05165 0 0.05165-0.051654-0.02066-0.35125-0.04132-0.50621-0.04132-0.34092-0.2686-0.54753-0.22728-0.20662-0.56819-0.20662z"/>
   <path d="m50.954 9.6478q-0.89878 0-1.436-0.4029t-0.5372-1.0537v-0.082646q0-0.051654 0.03099-0.082646 0.04132-0.041323 0.09298-0.041323h0.89878q0.05165 0 0.08265 0.041323 0.04132 0.030992 0.04132 0.082646v0.030992q0 0.24794 0.23761 0.43389 0.23761 0.17562 0.58886 0.17562 0.34092 0 0.54753-0.16529 0.21695-0.16529 0.21695-0.41323t-0.21695-0.38224q-0.20662-0.1343-0.65084-0.28926l-0.2686-0.092977q-0.70249-0.22728-1.1261-0.56819-0.42356-0.35125-0.42356-1.0331 0-0.72316 0.51654-1.1364 0.51654-0.42356 1.3637-0.42356 0.87812 0 1.3947 0.43389 0.52687 0.42356 0.52687 1.1364v0.010331q0 0.051654-0.04132 0.092977-0.03099 0.030992-0.08265 0.030992h-0.86779q-0.05165 0-0.09298-0.030992-0.03099-0.041323-0.03099-0.092977v-0.041323q0-0.25827-0.21695-0.42356-0.21695-0.17562-0.56819-0.17562-0.34092 0-0.54753 0.16529-0.20662 0.15496-0.20662 0.4029 0 0.19629 0.14463 0.33059 0.14463 0.12397 0.32026 0.19629 0.18596 0.072316 0.64051 0.22728 0.48555 0.16529 0.81613 0.34092 0.34092 0.17562 0.57852 0.48555t0.23761 0.78514q0 0.71283-0.5372 1.1261-0.52687 0.4029-1.4257 0.4029z"/>
  </g>
  <path d="m5.1594 0.66145c-2.842 0-5.1594 2.3173-5.1594 5.1594 0 0.21056 0.013037 0.41814 0.037756 0.62221h2.3558v0.00316h0.022044a2.8141 2.8141 0 0 0 2.7438 2.1888 2.8141 2.8141 0 0 0 2.7437-2.1888h1.1153c-0.2975 1.8665-1.906 3.2833-3.8591 3.2833-1.4864 0-2.7731-0.82078-3.4343-2.0357h-1.3723c0.75223 1.9205 2.6247 3.2864 4.8066 3.2864 2.842 0 5.1594-2.3173 5.1594-5.1594 0-0.21078-0.01307-0.4186-0.03783-0.62288h-0.81844v-0.00245h-4.0021a0.8837 0.62477 0 0 0-0.025861-3.12e-4 0.8837 0.62477 0 0 0-0.025387 3.12e-4h-0.024441v6.933e-4a0.8837 0.62477 0 0 0-0.83387 0.62377 0.8837 0.62477 0 0 0 0.83386 0.62374v0.00245h1.2642a1.6155 1.6155 0 0 1-1.4895 0.99021 1.6155 1.6155 0 0 1-1.6155-1.6155 1.6155 1.6155 0 0 1 1.6086-1.6155 1.6155 1.6155 0 0 1 0.00696 0 1.6155 1.6155 0 0 1 0.09396 0.00277v-0.00126h2.2112a2.8141 2.8141 0 0 0-2.3052-1.2001 2.8141 2.8141 0 0 0-2.7437 2.1888h-1.1154c0.2975-1.8665 1.906-3.2833 3.8591-3.2833 1.4862 0 2.7726 0.82047 3.434 2.0351h1.3723c-0.75239-1.9202-2.6247-3.2859-4.8063-3.2859z" color="#000000" color-rendering="auto" dominant-baseline="auto" image-rendering="auto" shape-rendering="auto" solid-color="#000000" stop-color="#000000" style="font-feature-settings:normal;font-variant-alternates:normal;font-variant-caps:normal;font-variant-east-asian:normal;font-variant-ligatures:normal;font-variant-numeric:normal;font-variant-position:normal;font-variation-settings:normal;inline-size:0;isolation:auto;mix-blend-mode:normal;shape-margin:0;shape-padding:0;text-decoration-color:#000000;text-decoration-line:none;text-decoration-style:solid;text-indent:0;text-orientation:mixed;text-transform:none;white-space:normal"/>
 </g>
</svg>
