<svg xmlns="http://www.w3.org/2000/svg" width="1080" height="1080" viewBox="0 0 1080 1080" version="1.1"><path d="M 53.496 540 C 53.496 797.125, 53.610 902.312, 53.750 773.750 C 53.890 645.187, 53.890 434.812, 53.750 306.250 C 53.610 177.687, 53.496 282.875, 53.496 540 M 1026.413 423.500 C 1026.414 433.400, 1026.564 437.315, 1026.746 432.199 C 1026.928 427.084, 1026.927 418.984, 1026.744 414.199 C 1026.561 409.415, 1026.412 413.600, 1026.413 423.500 M 327.328 423.500 C 327.333 427.350, 327.513 428.802, 327.730 426.728 C 327.946 424.653, 327.943 421.503, 327.722 419.728 C 327.501 417.952, 327.324 419.650, 327.328 423.500 M 668.302 772.746 C 673.693 772.926, 682.243 772.925, 687.302 772.744 C 692.361 772.563, 687.950 772.416, 677.500 772.417 C 667.050 772.418, 662.911 772.566, 668.302 772.746" stroke="none" fill="#fc4454" fill-rule="evenodd"/><path d="M 52.465 72.244 C 52.203 72.935, 52.104 283.875, 52.244 541 L 52.500 1008.500 138.500 1008.500 L 224.500 1008.500 224.500 540 L 224.500 71.500 138.721 71.244 C 70.625 71.042, 52.843 71.248, 52.465 72.244 M 665 71.237 C 664.725 71.508, 659.325 72.009, 653 72.350 C 598.418 75.297, 538.135 95.176, 489.500 126.265 C 475.245 135.378, 459.500 147.164, 459.500 148.723 C 459.500 149.334, 459.090 150.208, 458.590 150.667 C 458.061 151.151, 457.981 150.976, 458.399 150.250 C 462.882 142.459, 427.382 175.630, 411.577 194 C 364.392 248.842, 336.534 312.532, 327.814 385.500 C 325.852 401.925, 326.162 449.039, 328.342 465.500 C 343.024 576.396, 405.298 670.480, 501.351 726.886 C 540.508 749.880, 583.067 764.426, 632.500 771.710 C 649.760 774.254, 705.197 774.258, 722.500 771.716 C 792.690 761.408, 850.921 735.468, 904 690.866 C 919.386 677.937, 939.430 657.532, 938.436 655.810 C 938.020 655.090, 938.058 654.844, 938.520 655.264 C 938.983 655.684, 940.630 654.813, 942.181 653.327 C 945.253 650.384, 946.080 647.908, 943.250 650.128 C 941.659 651.376, 941.626 651.339, 942.893 649.726 C 943.658 648.750, 944.525 648.192, 944.818 648.485 C 945.487 649.154, 950 644.989, 950 643.703 C 950 643.182, 949.212 643.373, 948.250 644.128 C 946.666 645.370, 946.630 645.335, 947.863 643.761 C 948.613 642.805, 949.606 642.257, 950.070 642.543 C 950.872 643.039, 965 625.116, 965 623.603 C 965 623.206, 964.438 623.206, 963.750 623.601 C 963.024 624.019, 962.849 623.939, 963.333 623.410 C 963.792 622.910, 964.561 622.500, 965.042 622.500 C 966.045 622.500, 971 616.052, 971 614.747 C 971 614.271, 970.480 614.203, 969.845 614.595 C 969.124 615.041, 968.963 614.869, 969.415 614.138 C 969.813 613.494, 970.526 613.207, 970.999 613.499 C 972.330 614.322, 982.518 597.255, 991.594 579 C 1009.448 543.087, 1020.169 507.698, 1025.674 466.500 C 1027.884 449.965, 1028.187 399.940, 1026.174 384 C 1020.682 340.515, 1009.458 302.821, 991.091 266.181 C 980.800 245.652, 963.820 218.375, 962.023 219.486 C 961.536 219.787, 960.813 219.506, 960.415 218.862 C 959.963 218.131, 960.124 217.959, 960.845 218.405 C 962.981 219.725, 962.025 217.715, 957.948 212.314 C 955.719 209.362, 953.520 207.179, 953.061 207.462 C 952.602 207.746, 951.613 207.195, 950.863 206.239 C 949.605 204.634, 949.647 204.615, 951.413 206 C 959.117 212.042, 937.432 186.674, 922.230 171.860 C 910.719 160.644, 893.923 146, 892.569 146 C 892.191 146, 892.203 146.520, 892.595 147.155 C 893.041 147.876, 892.869 148.037, 892.138 147.585 C 891.494 147.187, 891.200 146.486, 891.484 146.026 C 891.768 145.566, 888.908 142.897, 885.128 140.095 C 878.292 135.027, 876.233 133.950, 877.595 136.155 C 878.041 136.876, 877.869 137.037, 877.138 136.585 C 876.494 136.187, 876.225 135.446, 876.539 134.937 C 877.096 134.036, 863.147 124.558, 851.878 118.181 C 846.006 114.858, 844.468 114.330, 845.493 115.989 C 845.850 116.566, 845.424 116.716, 844.468 116.349 C 843.173 115.852, 843.107 115.552, 844.154 114.905 C 845.951 113.794, 816.650 99.740, 798.500 93.008 C 770.807 82.736, 738.963 75.544, 708 72.571 C 699.341 71.739, 665.555 70.692, 665 71.237 M 53.496 540 C 53.496 797.125, 53.610 902.312, 53.750 773.750 C 53.890 645.187, 53.890 434.812, 53.750 306.250 C 53.610 177.687, 53.496 282.875, 53.496 540 M 1026.413 423.500 C 1026.414 433.400, 1026.564 437.315, 1026.746 432.199 C 1026.928 427.084, 1026.927 418.984, 1026.744 414.199 C 1026.561 409.415, 1026.412 413.600, 1026.413 423.500 M 327.328 423.500 C 327.333 427.350, 327.513 428.802, 327.730 426.728 C 327.946 424.653, 327.943 421.503, 327.722 419.728 C 327.501 417.952, 327.324 419.650, 327.328 423.500 M 668.302 772.746 C 673.693 772.926, 682.243 772.925, 687.302 772.744 C 692.361 772.563, 687.950 772.416, 677.500 772.417 C 667.050 772.418, 662.911 772.566, 668.302 772.746" stroke="none" fill="#fc444c" fill-rule="evenodd"/></svg>